<?xml version="1.0" encoding="utf-8"?>
<!-- Generator: Adobe Illustrator 22.1.0, SVG Export Plug-In . SVG Version: 6.00 Build 0)  -->
<svg version="1.1" id="Layer_1" xmlns="http://www.w3.org/2000/svg" xmlns:xlink="http://www.w3.org/1999/xlink" x="0px" y="0px"
	 viewBox="0 0 375.1 129.4" style="enable-background:new 0 0 375.1 129.4;" xml:space="preserve">
<style type="text/css">
	.st0{fill:#D6141B;}
	.st1{fill:#332560;}
	.st2{fill:#ED762D;}
	.st3{fill:#009B85;}
	.st4{fill:#1D1D1B;}
	.st5{fill:#737778;}
</style>
<g>
	<path class="st0" d="M39.2,74.5C19,74.5,2.5,58.1,2.5,37.9C2.5,17.6,19,1.2,39.2,1.2s36.7,16.5,36.7,36.7
		C75.9,58.1,59.4,74.5,39.2,74.5z M39.2,3C20,3,4.4,18.7,4.4,37.9c0,19.2,15.6,34.8,34.8,34.8S74,57.1,74,37.9
		C74,18.7,58.4,3,39.2,3z"/>
</g>
<g>
	<path class="st1" d="M94,74.5c-20.2,0-36.7-16.5-36.7-36.7C57.4,17.6,73.8,1.2,94,1.2s36.7,16.5,36.7,36.7
		C130.7,58.1,114.2,74.5,94,74.5z M94,3C74.8,3,59.2,18.7,59.2,37.9c0,19.2,15.6,34.8,34.8,34.8s34.8-15.6,34.8-34.8
		C128.9,18.7,113.2,3,94,3z"/>
</g>
<g>
	<path class="st2" d="M39.2,128.6C19,128.6,2.5,112.2,2.5,92c0-20.2,16.5-36.7,36.7-36.7S75.9,71.7,75.9,92
		C75.9,112.2,59.4,128.6,39.2,128.6z M39.2,57.1C20,57.1,4.4,72.8,4.4,92c0,19.2,15.6,34.8,34.8,34.8S74,111.2,74,92
		S58.4,57.1,39.2,57.1z"/>
</g>
<g>
	<path class="st3" d="M94,128.6c-20.2,0-36.7-16.4-36.7-36.7c0-20.2,16.4-36.7,36.7-36.7s36.7,16.4,36.7,36.7
		C130.7,112.2,114.2,128.6,94,128.6z M94,57.1c-19.2,0-34.8,15.6-34.8,34.8c0,19.2,15.6,34.8,34.8,34.8s34.8-15.6,34.8-34.8
		S113.2,57.1,94,57.1z"/>
</g>
<g>
	<g>
		<path class="st4" d="M146.5,38.9c0-5.5,2.9-8.6,8.1-8.6c5.3,0,8.1,3.1,8.1,8.6v17.8c0,1.9-0.3,3.5-1,4.8c0.2,0.6,0.6,0.7,1.5,0.7
			h0.5V67H163c-2.4,0-3.9-0.9-4.6-2.3c-1.1,0.4-2.3,0.6-3.8,0.6c-5.3,0-8.1-3.1-8.1-8.6L146.5,38.9L146.5,38.9z M151.9,57
			c0,2.4,1.1,3.4,2.8,3.4c1.7,0,2.8-0.9,2.8-3.4V38.6c0-2.4-1.1-3.4-2.8-3.4c-1.7,0-2.8,0.9-2.8,3.4V57z"/>
		<path class="st4" d="M171.4,30.7v26.3c0,2.4,1.1,3.3,2.8,3.3c1.7,0,2.8-0.9,2.8-3.3V30.7h5.1v26c0,5.5-2.7,8.6-8,8.6s-8-3.1-8-8.6
			v-26H171.4z"/>
		<path class="st4" d="M203.1,64.9h-5.4l-0.9-6.2h-6.6l-0.9,6.2h-4.9l5.5-34.2h7.9L203.1,64.9z M190.8,54.1h5.2l-2.5-17.3h-0.1
			L190.8,54.1z"/>
		<path class="st4" d="M205.5,30.7h8.5c5.4,0,8,3,8,8.4v17.3c0,5.5-2.6,8.4-8,8.4h-8.5V30.7z M210.9,35.6V60h3
			c1.7,0,2.7-0.9,2.7-3.3V38.9c0-2.4-1-3.3-2.7-3.3H210.9z"/>
		<path class="st4" d="M236.7,64.9c-0.3-0.9-0.5-1.4-0.5-4.2v-5.4c0-3.2-1.1-4.3-3.5-4.3h-1.9v13.9h-5.4V30.7h8.1
			c5.6,0,7.9,2.6,7.9,7.9v2.7c0,3.5-1.1,5.8-3.5,6.9v0.1c2.7,1.1,3.6,3.7,3.6,7.2v5.3c0,1.7,0.1,2.9,0.6,4.2L236.7,64.9L236.7,64.9z
			 M230.8,35.6v10.5h2.1c2,0,3.2-0.9,3.2-3.6v-3.4c0-2.4-0.8-3.5-2.7-3.5C233.4,35.6,230.8,35.6,230.8,35.6z"/>
		<path class="st4" d="M245,30.7h5.4v34.2H245V30.7z"/>
		<path class="st4" d="M259.2,40.2h-0.1v24.7h-4.8V30.7h6.7l5.4,20.5h0.1V30.7h4.8v34.2h-5.5L259.2,40.2z"/>
	</g>
	<g>
		<path class="st5" d="M289.5,45.6h7.5v10.8c0,5.5-2.7,8.6-8,8.6s-8-3.1-8-8.6V38.7c0-5.5,2.7-8.6,8-8.6s8,3.1,8,8.6V42h-5.1v-3.7
			c0-2.4-1.1-3.4-2.8-3.4c-1.7,0-2.8,0.9-2.8,3.4v18.5c0,2.4,1.1,3.3,2.8,3.3s2.8-0.9,2.8-3.3v-6.3h-2.4L289.5,45.6L289.5,45.6z"/>
		<path class="st5" d="M311.7,64.6c-0.3-0.9-0.5-1.4-0.5-4.2v-5.4c0-3.2-1.1-4.3-3.5-4.3h-1.9v13.9h-5.4V30.5h8.1c5.6,0,8,2.6,8,7.9
			V41c0,3.5-1.1,5.8-3.5,6.9V48c2.7,1.1,3.6,3.7,3.6,7.2v5.3c0,1.7,0,2.9,0.6,4.2C317.1,64.6,311.7,64.6,311.7,64.6z M305.8,35.3
			v10.5h2.1c2,0,3.2-0.9,3.2-3.6v-3.4c0-2.4-0.8-3.5-2.7-3.5C308.4,35.3,305.8,35.3,305.8,35.3z"/>
		<path class="st5" d="M319.6,38.7c0-5.5,2.9-8.6,8.1-8.6s8.1,3.1,8.1,8.6v17.8c0,5.5-2.9,8.6-8.1,8.6s-8.1-3.1-8.1-8.6V38.7z
			 M325,56.8c0,2.4,1.1,3.4,2.8,3.4s2.8-0.9,2.8-3.4V38.3c0-2.4-1.1-3.4-2.8-3.4c-1.7,0-2.8,0.9-2.8,3.4V56.8z"/>
		<path class="st5" d="M344.5,30.5v26.3c0,2.4,1.1,3.3,2.8,3.3s2.8-0.9,2.8-3.3V30.5h5.1v26c0,5.5-2.7,8.6-8,8.6s-8-3.1-8-8.6v-26
			H344.5z"/>
		<path class="st5" d="M374.7,38.9v4.4c0,5.5-2.6,8.4-8,8.4h-2.5v12.8h-5.4V30.5h7.9C372.1,30.5,374.7,33.4,374.7,38.9z M364.2,35.3
			v11.6h2.5c1.7,0,2.6-0.8,2.6-3.2v-5.1c0-2.4-0.9-3.2-2.6-3.2L364.2,35.3L364.2,35.3z"/>
	</g>
</g>
<g>
	<path class="st4" d="M153.5,92.7l-3.2-5.5h-2.4v5.5h-1.7V79.6h4.1c2.7,0,4.6,1,4.6,3.7c0,2-1.2,3.3-2.9,3.7l3.3,5.7H153.5z
		 M147.9,85.8h2.2c2,0,3.2-0.8,3.2-2.5c0-1.7-1.1-2.3-3.2-2.3h-2.2V85.8z"/>
	<path class="st4" d="M157.3,79.6h7.6V81H159v4.1h5v1.4h-5v4.8h6.1v1.4h-7.8L157.3,79.6L157.3,79.6z"/>
	<path class="st4" d="M167.6,79.6h3.3c4,0,6.2,2.3,6.2,6.5c0,4.2-2.2,6.6-6.1,6.6h-3.4V79.6z M170.7,91.3c3.1,0,4.6-1.9,4.6-5.3
		c0-3.3-1.5-5.1-4.6-5.1h-1.5v10.4H170.7z"/>
	<path class="st4" d="M179.6,79.6h7.6V81h-5.9v4.1h5v1.4h-5v4.8h6.1v1.4h-7.8L179.6,79.6L179.6,79.6z"/>
	<path class="st4" d="M189.8,79.6h7.6V81h-5.9v4.4h5v1.4h-5v5.9h-1.7V79.6z"/>
	<path class="st4" d="M199.4,79.6h1.7v13.1h-1.7V79.6z"/>
	<path class="st4" d="M204.4,79.6h1.7l4.7,8.2l1.4,2.7h0.1c-0.1-1.3-0.2-2.8-0.2-4.2v-6.8h1.6v13.1H212l-4.8-8.3l-1.4-2.7h-0.1
		c0.1,1.3,0.2,2.7,0.2,4.1v6.9h-1.6L204.4,79.6L204.4,79.6z"/>
	<path class="st4" d="M217,79.6h1.7v13.1H217V79.6z"/>
	<path class="st4" d="M222,79.6h1.7l4.7,8.2l1.4,2.7h0.1c-0.1-1.3-0.2-2.8-0.2-4.2v-6.8h1.6v13.1h-1.7l-4.8-8.3l-1.4-2.7h-0.1
		c0.1,1.3,0.2,2.7,0.2,4.1v6.9H222L222,79.6L222,79.6z"/>
	<path class="st4" d="M233.8,86.1c0-4.2,2.5-6.8,6-6.8c1.8,0,3,0.8,3.8,1.6l-0.9,1.1c-0.7-0.7-1.5-1.2-2.8-1.2c-2.6,0-4.3,2-4.3,5.3
		c0,3.3,1.6,5.4,4.4,5.4c0.9,0,1.8-0.3,2.4-0.8v-3.4h-2.8v-1.4h4.3v5.5c-0.8,0.9-2.3,1.5-4,1.5C236.3,92.9,233.8,90.4,233.8,86.1z"
		/>
	<path class="st4" d="M250.3,79.6h3.3c4,0,6.2,2.3,6.2,6.5c0,4.2-2.2,6.6-6.1,6.6h-3.4L250.3,79.6L250.3,79.6z M253.5,91.3
		c3.1,0,4.6-1.9,4.6-5.3c0-3.3-1.5-5.1-4.6-5.1H252v10.4H253.5z"/>
	<path class="st4" d="M262.3,87.3v-7.7h1.7v7.7c0,3.2,1.3,4.2,3.1,4.2c1.7,0,3.1-1,3.1-4.2v-7.7h1.6v7.7c0,4.2-2,5.7-4.7,5.7
		C264.3,92.9,262.3,91.5,262.3,87.3z"/>
	<path class="st4" d="M274.9,79.6h7.6V81h-5.9v4.1h5v1.4h-5v4.8h6.1v1.4h-7.8V79.6z"/>
	<path class="st4" d="M288.9,79.6h3.3c4,0,6.2,2.3,6.2,6.5c0,4.2-2.2,6.6-6.1,6.6h-3.4L288.9,79.6L288.9,79.6z M292,91.3
		c3.1,0,4.6-1.9,4.6-5.3c0-3.3-1.5-5.1-4.6-5.1h-1.5v10.4H292z"/>
	<path class="st4" d="M300.9,79.6h1.7v13.1h-1.7V79.6z"/>
	<path class="st4" d="M305.8,79.6h1.7v11.7h5.7v1.4h-7.4V79.6z"/>
	<path class="st4" d="M315.3,79.6h1.7v13.1h-1.7V79.6z"/>
	<path class="st4" d="M319.5,86.1c0-4.2,2.5-6.8,6-6.8c1.8,0,3,0.8,3.8,1.6l-0.9,1.1c-0.7-0.7-1.5-1.2-2.8-1.2c-2.6,0-4.3,2-4.3,5.3
		c0,3.3,1.6,5.4,4.4,5.4c0.9,0,1.8-0.3,2.4-0.8v-3.4h-2.8v-1.4h4.3v5.5c-0.8,0.9-2.3,1.5-4,1.5C321.9,92.9,319.5,90.4,319.5,86.1z"
		/>
	<path class="st4" d="M332.3,79.6h7.6V81h-5.9v4.1h5v1.4h-5v4.8h6.1v1.4h-7.8V79.6z"/>
	<path class="st4" d="M342.5,79.6h1.7l4.7,8.2l1.4,2.7h0.1c-0.1-1.3-0.2-2.8-0.2-4.2v-6.8h1.6v13.1h-1.7l-4.8-8.3l-1.4-2.7h-0.1
		c0.1,1.3,0.2,2.7,0.2,4.1v6.9h-1.6L342.5,79.6L342.5,79.6z"/>
	<path class="st4" d="M354.4,86.1c0-4.2,2.5-6.8,5.8-6.8c1.6,0,2.8,0.8,3.6,1.6l-0.9,1.1c-0.7-0.7-1.6-1.2-2.7-1.2
		c-2.5,0-4.1,2-4.1,5.3c0,3.3,1.6,5.4,4.1,5.4c1.3,0,2.2-0.6,3-1.5l0.9,1c-1,1.2-2.3,1.9-4,1.9C356.8,92.9,354.4,90.4,354.4,86.1z"
		/>
	<path class="st4" d="M366.3,79.6h7.6V81h-5.9v4.1h5v1.4h-5v4.8h6.1v1.4h-7.8V79.6z"/>
</g>
</svg>
